<svg xmlns="http://www.w3.org/2000/svg" width="80" height="80" viewBox="0 0 80 80" fill="none"><g clip-path="url(#clip0_186_2)"><path d="M28.6914 49.1125L36.5609 52.4009C37.7469 52.8965 38.7355 53.7706 39.3727 54.887L46.0169 66.5285C46.495 67.3662 47.5618 67.6578 48.3995 67.1796L58.0699 61.6604C58.9076 61.1823 59.1992 60.1155 58.721 59.2778L53.6976 50.4761C53.137 49.4939 52.8747 48.3698 52.9424 47.241L53.6871 34.8467L28.6914 49.1125Z" fill="#BCEA73"></path><path d="M53.6886 34.847L52.9443 47.2403C52.8766 48.369 53.1393 49.4941 53.6997 50.4761L58.7229 59.2773C59.2013 60.1156 58.9091 61.182 58.0717 61.66L55.0692 63.3736C55.9075 62.8951 56.1988 61.8293 55.7203 60.9909L50.6972 52.1897C50.1367 51.2077 49.8741 50.0827 49.9418 48.954L50.6871 36.5601L53.6886 34.847Z" fill="#99D53B"></path><path d="M53.6865 34.8471L53.2477 42.1523C52.9911 41.914 52.7574 41.6479 52.552 41.3562C51.5696 43.5553 49.1823 44.7542 46.855 44.2658C45.7459 45.9096 44.2518 47.3322 42.4132 48.3816C40.6425 49.3922 38.7373 49.9513 36.8314 50.0978C36.8157 50.8669 36.6856 51.6277 36.4454 52.3533L28.6914 49.1125L53.6865 34.8471Z" fill="#99D53B"></path><path d="M48.5255 37.794L47.5997 52.0917L41.6719 41.7053L48.5255 37.794Z" fill="#82B732"></path><path d="M48.5215 37.794L48.0953 44.3694C47.6853 44.3862 47.2678 44.3523 46.8536 44.2656C46.2224 45.201 45.4663 46.0656 44.5925 46.8298L41.668 41.7056L48.5215 37.794Z" fill="#79A72D"></path><path d="M62.0002 24.559C61.2067 24.1784 60.364 24.0212 59.5429 24.0621C58.52 20.7687 55.3797 18.5301 51.8858 18.6914C51.1781 16.8549 49.9324 15.2032 48.1948 13.9951C44.8019 11.6361 40.4771 11.6233 37.1449 13.6107C34.5151 12.2084 31.2459 12.1437 28.4662 13.7301C25.9978 15.139 24.4545 17.5428 24.0484 20.1486C22.6433 20.1981 21.2292 20.5772 19.9233 21.3225C16.3206 23.3787 14.6856 27.5531 15.6878 31.3835C12.2658 33.0173 10.1286 36.7202 10.6621 40.6805C11.0211 43.3456 12.5168 45.5771 14.5935 46.9571C14.0552 47.7993 13.7575 48.8074 13.7956 49.882C13.8952 52.6993 16.2598 54.9024 19.0771 54.8027C20.5588 54.7503 21.8698 54.071 22.7661 53.0292C25.1428 54.8814 28.4958 55.2278 31.275 53.6416C33.705 52.2547 35.086 49.7387 35.137 47.1308C37.0433 46.9848 38.9482 46.4254 40.719 45.4147C42.558 44.3651 44.0516 42.9435 45.1606 41.2993C47.4886 41.787 49.8756 40.5877 50.8581 38.3889C52.1748 40.2599 54.639 41.0711 56.8698 40.2094C59.2836 39.2771 60.5826 36.7107 59.9943 34.2618C61.8218 34.188 63.5493 33.1329 64.3954 31.3688C65.6142 28.827 64.542 25.7781 62.0002 24.559Z" fill="#1CA56F"></path><path d="M64.3953 31.3688C63.9485 32.3009 63.2531 33.0369 62.4282 33.5319C62.6104 31.5562 61.6187 29.5695 59.8056 28.5772C59.2367 28.2664 58.6394 28.075 58.0388 27.9928C57.4603 27.9141 56.9769 27.5276 56.7293 26.9973C55.5812 24.53 53.1774 22.8317 50.4366 22.6007C49.8351 22.5499 49.3029 22.1953 49.0318 21.6569C48.2931 20.1935 47.1907 18.8867 45.7504 17.8854C42.5993 15.6952 38.6447 15.5269 35.4278 17.1069C34.9754 17.3289 34.449 17.3558 33.9855 17.1592C31.4933 16.1 28.5545 16.1751 26.0222 17.6204C25.4063 17.9719 24.8496 18.3848 24.352 18.8471C25.0042 16.7575 26.4165 14.9003 28.4664 13.7304C31.2464 12.1437 34.5147 12.2089 37.1447 13.6106C40.4763 11.6232 44.802 11.6361 48.1946 13.9955C49.9326 15.2037 51.1781 16.8551 51.8856 18.6916C55.3798 18.53 58.5201 20.7694 59.5425 24.0618C60.3637 24.0207 61.2068 24.1778 61.9996 24.5592C64.5414 25.7779 65.614 28.8272 64.3953 31.3688Z" fill="#158F5E"></path><path d="M43.5973 54.2852C43.1898 54.5177 43.0479 55.0367 43.2805 55.4442L47.6907 63.1714C47.9232 63.5789 48.4422 63.7207 48.8497 63.4881C49.2572 63.2555 49.399 62.7366 49.1664 62.3291L44.7563 54.6019C44.5237 54.1943 44.0048 54.0526 43.5973 54.2852Z" fill="black"></path><path d="M27.9329 53.7856C26.5348 53.8777 25.154 53.5376 23.9665 52.8229C24.5794 51.8294 24.8893 50.6756 24.8475 49.4913C24.8309 49.0223 24.4373 48.6557 23.9684 48.6722C23.4995 48.6888 23.1327 49.0824 23.1493 49.5513C23.1871 50.6203 22.8252 51.6552 22.1304 52.467C22.1279 52.4699 22.125 52.4724 22.1225 52.4753C21.3499 53.373 20.2292 53.912 19.0474 53.9538C17.9117 53.9939 16.8282 53.5894 15.9967 52.8147C15.1652 52.04 14.6851 50.9879 14.645 49.852C14.6242 49.2653 14.7258 48.6903 14.9364 48.1532C15.8214 48.6248 16.7699 48.9572 17.7678 49.1425C17.9734 49.1807 18.1753 49.1414 18.3436 49.0453C18.5532 48.9257 18.7107 48.7181 18.7581 48.4623C18.8438 48.001 18.5392 47.5574 18.0779 47.4718C17.0107 47.2737 16.0121 46.8727 15.1076 46.2818C15.0932 46.2708 15.0792 46.2597 15.0638 46.2495C13.1136 44.9535 11.8161 42.8824 11.5042 40.567C11.0582 37.2565 12.6596 34.0599 15.5248 32.4278C15.5261 32.427 15.5276 32.4265 15.5291 32.4256C15.6223 32.3724 15.7162 32.3216 15.8108 32.2723C15.8396 32.2574 15.8689 32.2431 15.898 32.2285C17.376 31.4802 19.0145 31.2043 20.6636 31.4325C20.8567 31.4593 21.0436 31.4188 21.2007 31.3292C21.4219 31.2029 21.5841 30.979 21.6217 30.7074C21.686 30.2426 21.3614 29.8137 20.8965 29.7494C19.3338 29.5332 17.7795 29.6921 16.32 30.2051C15.881 26.9632 17.447 23.7143 20.3446 22.0605C21.4985 21.402 22.7547 21.0444 24.0785 20.9977C24.4856 20.9834 24.8253 20.6821 24.888 20.2795C25.2721 17.818 26.7299 15.6998 28.888 14.4681C30.8997 13.32 33.2514 13.093 35.4072 13.7923C34.6077 14.442 33.9034 15.2013 33.3055 16.0611C31.6212 18.4837 30.981 21.417 31.5029 24.3209C31.586 24.7827 32.0276 25.0898 32.4895 25.0068C32.5876 24.9892 32.6786 24.9554 32.7604 24.9087C33.0641 24.7354 33.2408 24.3841 33.1755 24.0203C32.7338 21.5631 33.2754 19.081 34.7007 17.0312C35.4212 15.9949 36.3227 15.131 37.3801 14.4634C37.4133 14.4425 37.4438 14.419 37.4731 14.3943C37.5099 14.3789 37.5459 14.3614 37.5806 14.3404C39.6729 13.0936 42.2291 12.7076 44.5934 13.2846C45.0493 13.3959 45.5089 13.1164 45.6202 12.6606C45.7315 12.2047 45.4521 11.745 44.9962 11.6337C42.3557 10.9893 39.5128 11.3601 37.1216 12.6477C34.2144 11.2693 30.8557 11.3886 28.0457 12.9924C25.6342 14.3687 23.9457 16.66 23.3374 19.3478C21.9934 19.4905 20.6799 19.9129 19.5027 20.5847C15.8505 22.6692 13.9472 26.8496 14.7165 30.932C11.2315 32.8987 9.27948 36.7782 9.82068 40.7941C10.163 43.335 11.4866 45.6327 13.4906 47.2069C13.1004 48.0495 12.9137 48.9712 12.947 49.9121C13.0031 51.5015 13.675 52.9739 14.8386 54.0581C16.0022 55.1423 17.5183 55.7082 19.1077 55.652C20.5008 55.6028 21.8331 55.0601 22.8644 54.1399C24.3968 55.1287 26.2093 55.6021 28.0447 55.4814C28.1776 55.4726 28.3013 55.4338 28.4095 55.3719C28.6831 55.2158 28.8587 54.9131 28.8367 54.5777C28.8057 54.1093 28.4012 53.7547 27.9329 53.7856Z" fill="black"></path><path d="M62.3689 23.793C61.6717 23.4587 60.9142 23.2633 60.1473 23.2172C58.8991 20.0443 55.8617 17.9197 52.4509 17.8363C51.6904 16.1414 50.5131 14.6659 49.02 13.5429C48.645 13.2609 48.1123 13.3363 47.8304 13.7112C47.5484 14.0862 47.6237 14.6188 47.9987 14.9008C49.0984 15.7279 49.9943 16.7817 50.6325 17.9861C48.9001 18.3186 47.2967 19.1871 46.0775 20.465C45.7537 20.8046 45.7663 21.3423 46.1058 21.6662C46.4454 21.9901 46.9829 21.9773 47.307 21.6379C48.3839 20.509 49.7726 19.8017 51.3227 19.5929C51.5166 19.5668 51.7131 19.5492 51.9072 19.5396C51.9136 19.5395 51.9199 19.5406 51.9264 19.5403C55.0166 19.3976 57.8156 21.3608 58.733 24.3143C58.848 24.6847 59.1992 24.9302 59.5867 24.9108C60.288 24.8759 60.9961 25.0191 61.634 25.3251C63.7495 26.3397 64.645 28.8861 63.6304 31.0014C62.9475 32.4251 61.5414 33.3492 59.9612 33.413C59.9573 33.4131 59.9535 33.4139 59.9496 33.4141C59.2658 33.4397 58.5762 33.2962 57.9542 32.9978C57.5312 32.7949 57.0237 32.9734 56.8207 33.3965C56.6177 33.8196 56.7962 34.3271 57.2194 34.5301C57.8643 34.8393 58.5621 35.029 59.2704 35.0923C59.426 36.9422 58.3426 38.7302 56.5649 39.4171C54.879 40.0682 52.9932 39.5853 51.8286 38.2488C52.0684 37.5583 52.1787 36.8356 52.1525 36.0924C52.136 35.6235 51.7425 35.2567 51.2735 35.2733C50.8046 35.2898 50.4378 35.6835 50.4544 36.1523C50.4773 36.8017 50.3565 37.429 50.0967 38.0175C50.0926 38.026 50.0874 38.0336 50.0836 38.0423C49.4522 39.4554 48.0989 40.3868 46.6129 40.5355C47.631 38.6337 48.2059 36.5205 48.2867 34.3472C48.3041 33.8782 47.938 33.484 47.4692 33.4666C47.0002 33.4492 46.606 33.8153 46.5887 34.284C46.5017 36.6225 45.7663 38.882 44.4617 40.8188C44.4604 40.8208 44.4588 40.8223 44.4574 40.8243C43.381 42.4202 41.982 43.7165 40.2992 44.6769C38.6789 45.6016 36.9206 46.1423 35.0734 46.2839C35.071 46.2841 35.0686 46.2845 35.0662 46.2847C32.6652 46.467 30.2746 45.9559 28.1522 44.8063C27.7396 44.5828 27.224 44.7361 27.0005 45.1488C26.777 45.5613 26.9303 46.077 27.3429 46.3004C29.4619 47.4483 31.8168 48.035 34.2082 48.0194C33.9255 49.8492 32.9074 51.5087 31.375 52.5746C30.9898 52.8426 30.8947 53.372 31.1626 53.7573C31.4306 54.1425 31.9616 54.2378 32.3453 53.9696C33.0219 53.499 33.6165 52.9344 34.121 52.3022L36.2334 53.1849C37.2407 53.6059 38.0936 54.3598 38.6349 55.3081L45.2791 66.9496C45.9886 68.1929 47.5774 68.6271 48.8207 67.9176L58.4911 62.3984C59.7344 61.6888 60.1686 60.1 59.459 58.8567L57.6304 55.6527C57.3978 55.2452 56.8789 55.1033 56.4714 55.3359C56.0638 55.5685 55.922 56.0874 56.1546 56.4949L57.9832 59.699C58.2284 60.1285 58.0784 60.6774 57.6488 60.9226L54.6071 62.6586L50.4822 55.4313C50.2496 55.0238 49.7307 54.882 49.3232 55.1146C48.9157 55.3472 48.7739 55.8661 49.0064 56.2736L53.1312 63.5007L47.9783 66.4416C47.5488 66.6867 46.9999 66.5367 46.7547 66.1072L40.1105 54.4655C39.3843 53.1932 38.2401 52.1816 36.8885 51.6168L35.0566 50.8513C35.5223 49.9371 35.8262 48.9387 35.9393 47.9024C36.0175 47.8924 36.0952 47.8807 36.1731 47.8694L38.0105 48.6372C39.1829 49.127 40.1755 50.0047 40.8054 51.1083L41.1334 51.683C41.366 52.0905 41.8849 52.2324 42.2924 51.9998C42.6999 51.7672 42.8418 51.2483 42.6092 50.8408L42.2811 50.266C41.5121 48.9185 40.3248 47.8321 38.9187 47.1814C39.6813 46.9054 40.4236 46.5622 41.1416 46.1524C41.6732 45.8491 42.1794 45.5157 42.6602 45.1541L46.86 52.5127C47.046 52.8386 47.4236 53.0038 47.7891 52.9194C47.8713 52.9004 47.9484 52.8698 48.019 52.8295C48.2623 52.6906 48.427 52.4366 48.4457 52.1464L49.137 41.47C49.857 41.0616 50.4956 40.5073 50.9969 39.8288C51.4416 40.2396 51.9416 40.5742 52.4767 40.8284L52.0944 47.1898C52.0165 48.4866 52.3156 49.7685 52.9596 50.8969L54.1167 52.9243C54.3493 53.3318 54.8682 53.4736 55.2757 53.241C55.6832 53.0084 55.825 52.4895 55.5925 52.082L54.4355 50.0548C53.9555 49.2138 53.7325 48.2583 53.7906 47.2918L54.1483 41.3381C55.1437 41.487 56.1854 41.385 57.1773 41.0019C57.4574 40.8937 57.7252 40.766 57.9795 40.6209C59.9702 39.4847 61.1408 37.2791 60.9687 34.9986C62.7868 34.6343 64.3451 33.4412 65.163 31.7361C66.5823 28.776 65.3291 25.2128 62.3689 23.793ZM46.9327 49.2125L43.9753 44.0308C44.5492 43.4759 45.0763 42.8724 45.5526 42.2206C46.1749 42.2887 46.7944 42.2529 47.3914 42.129L46.9327 49.2125Z" fill="black"></path><path d="M26.841 36.0357C26.6884 37.5915 25.789 38.9817 24.4353 39.7543C23.0815 40.527 21.4271 40.5943 20.0099 39.9344C19.5847 39.7364 19.0793 39.9207 18.8811 40.346C18.683 40.7715 18.8673 41.2768 19.2927 41.4749C21.2086 42.367 23.4459 42.2755 25.2775 41.2301C27.1092 40.1848 28.3258 38.305 28.5321 36.2017C28.5779 35.7347 28.2365 35.319 27.7695 35.2731C27.3025 35.2274 26.8869 35.5688 26.841 36.0357Z" fill="black"></path><path d="M40.0368 34.076C39.9357 35.1054 39.3408 36.0251 38.4453 36.5362C37.5498 37.0473 36.4554 37.0917 35.5177 36.6552C35.0925 36.4571 34.5871 36.6414 34.3888 37.0668C34.1909 37.4921 34.3751 37.9975 34.8004 38.1957C36.2367 38.8645 37.9141 38.7958 39.2875 38.012C40.6608 37.2282 41.5732 35.8189 41.7278 34.242C41.7737 33.7749 41.4322 33.3593 40.9652 33.3134C40.4984 33.2677 40.0826 33.609 40.0368 34.076Z" fill="black"></path></g><defs><clipPath id="clip0_186_2"><rect width="58" height="58" fill="white" transform="translate(0 29) rotate(-29.7148)"></rect></clipPath></defs></svg>